<svg xmlns="http://www.w3.org/2000/svg" viewBox="0 0 24 24"><path fill="#FF5555" d="M15.22 4.97a.75.75 0 0 1 1.06 0l4.75 4.75a.75.75 0 0 1 0 1.06l-4.75 4.75a.749.749 0 0 1-1.275-.326.749.749 0 0 1 .215-.734l3.72-3.72-3.72-3.72a.75.75 0 0 1 0-1.06Zm-6.44 0a.75.75 0 0 1 0 1.06L5.06 9.75l3.72 3.72a.749.749 0 0 1-.326 1.275.749.749 0 0 1-.734-.215L3.22 10.03a.75.75 0 0 1 0-1.06l4.75-4.75a.75.75 0 0 1 1.06 0Zm4.22 1.03a.75.75 0 0 1 .53.91l-2.5 10a.75.75 0 0 1-1.44-.38l2.5-10a.75.75 0 0 1 .91-.53Z"/></svg>